inDegrees=yes
name=ik_lifting_orientations
DataType=double
version=3
OpenSimVersion=4.5-2024-01-10-34fd6af
endheader
time	pelvis_tilt	pelvis_list	pelvis_rotation	pelvis_tx	pelvis_ty	pelvis_tz	hip_flexion_r	hip_adduction_r	hip_rotation_r	knee_angle_r	knee_angle_r_beta	ankle_angle_r	subtalar_angle_r	mtp_angle_r	hip_flexion_l	hip_adduction_l	hip_rotation_l	knee_angle_l	knee_angle_l_beta	ankle_angle_l	subtalar_angle_l	mtp_angle_l	lumbar_extension	lumbar_bending	lumbar_rotation	arm_flex_r	arm_add_r	arm_rot_r	elbow_flex_r	pro_sup_r	wrist_flex_r	wrist_dev_r	arm_flex_l	arm_add_l	arm_rot_l	elbow_flex_l	pro_sup_l	wrist_flex_l	wrist_dev_l
0.75	-0.5503941188550122	19.85914544411806	-93.07677306103893	0	0.9399999998679526	0	45.08148282575166	-10.96655217069007	0	60.24172356742599	1.051416423327848	-5.361542223841152	0	0	45.08148282575166	-10.96655217069007	0	60.24172356742599	1.051416423327848	-5.361542223841152	0	0	31.42590890536173	2.154806113465277	-2.698518667322876	-9.390624216226639	-8.497326001814189	3.946122938194333	0.03351576561562548	2.220994693486448	0	0	0	-9.978600822332432	0	87.82518882306223	2.220994693486448	0	0
0.76	-0.6013113740543571	20.42103957476884	-92.95347800719097	0	0.9399999998679526	0	45.08146019652649	-10.96565474142998	0	60.24166899595258	1.051415470875959	-5.361108221314664	0	0	45.08146019652649	-10.96565474142998	0	60.24166899595258	1.051415470875959	-5.361108221314664	0	0	33.04638447064654	2.271268174735202	-2.688552751147467	-10.47567644579292	-8.783372609634709	3.709075267092939	0.03321202918747878	2.220559328737961	0	0	0	-9.97933474771706	0	87.82561509168221	2.220559328737961	0	0
0.77	-0.6326005084594797	21.48815310994532	-92.75467397345045	0	0.9399999998679526	0	45.08143684967058	-10.96474051810297	0	60.24161219475257	1.051414479508	-5.360667302237154	0	0	45.08143684967058	-10.96474051810297	0	60.24161219475257	1.051414479508	-5.360667302237154	0	0	35.3074521263261	2.29678489271853	-2.836120956081023	-11.64575871884162	-8.971893815160897	3.726515272781883	0.03350004112295783	2.220108561257006	0	0	0	-9.980096843283793	0	87.82605644142228	2.220108561257006	0	0
0.78	-0.5861967500917473	22.60699230654694	-92.55542380762751	0	0.9399999998679526	0	45.08141232365689	-10.96373958684787	0	60.24155444879222	1.051413471650862	-5.360180810471533	0	0	45.08141232365689	-10.96373958684787	0	60.24155444879222	1.051413471650862	-5.360180810471533	0	0	37.68057225645384	2.193831327704237	-2.919201458726979	-12.74867983834848	-9.166522323654076	4.083670925968129	0.03372725272164922	2.219640997290907	0	0	0	-9.980878980392241	0	87.82651423598502	2.219640997290907	0	0
0.79	-0.5015323773212332	23.67158314318106	-92.50729240404006	0	0.9399999998679526	0	45.08138625364943	-10.96267154317074	0	60.24149328693785	1.051412404175126	-5.359661404175994	0	0	45.08138625364943	-10.96267154317074	0	60.24149328693785	1.051412404175126	-5.359661404175994	0	0	39.81581371120559	2.13307844823296	-2.804249965555797	-13.68344668515922	-9.297631294658359	4.445253504337287	0.03334007015523248	2.219144652595089	0	0	0	-9.981708323152954	0	87.82700020984515	2.219144652595089	0	0
0.8	-0.4115348022362256	24.55554424132993	-92.45987224363004	0	0.9399999998679526	0	45.08136121189665	-10.96167197898547	0	60.24143332771698	1.051411357689305	-5.359177742259479	0	0	45.08136121189665	-10.96167197898547	0	60.24143332771698	1.051411357689305	-5.359177742259479	0	0	41.72891886600684	2.006700550782806	-2.842609214998798	-14.60411601326773	-9.310958159895375	4.710517281623256	0.03245277746985041	2.218664082710888	0	0	0	-9.982516685034616	0	87.82747073897869	2.218664082710888	0	0
0.8100000000000001	-0.3181910930948613	25.42290501928776	-92.49886187275081	0	0.9399999998679526	0	45.08133718320128	-10.96072191899964	0	60.24137539465458	1.051410346566621	-5.358718938370555	0	0	45.08133718320128	-10.96072191899964	0	60.24137539465458	1.051410346566621	-5.358718938370555	0	0	43.63431037043225	1.94867426082598	-2.78507655268803	-15.62831263637523	-9.33173443025197	4.510904084766102	0.03207824944908922	2.218201678952521	0	0	0	-9.983296270299993	0	87.82792348169917	2.218201678952521	0	0
0.82	-0.370037822043369	26.36563427801203	-92.44593018459173	0	0.9399999998679526	0	45.08131086454249	-10.95967022327902	0	60.24131249060443	1.051409248683833	-5.358210096376763	0	0	45.08131086454249	-10.95967022327902	0	60.24131249060443	1.051409248683833	-5.358210096376763	0	0	45.82727271805151	2.051770065177112	-2.980849924101271	-16.66279650915666	-9.57028637976258	4.559781339468709	0.03362389243519347	2.217696890543393	0	0	0	-9.984144937823496	0	87.82841772331705	2.217696890543393	0	0
